PathFileType	4	(X/Y/Z)	C:/Users/beibeiliu/ov580/test_trc/User1\sequence.20_training_dense_left.trc
DataRate	CameraRate	NumFrames	NumMarkers	Units	OrigDataRate	OrigDataStartFrame	OrigNumFrames
120	120	14	19	mm	120	33	263
Frame#	Time	ThumbCMC			ThumbMCP			ThumbIP			ThumbTip			IndexMCP			IndexPIP			IndexTip			MiddleMCP			MiddlePIP			MiddleTip			RingMCP			RingPIP			RingTip			PinkyMCP			PinkyPIP			PinkyTip			BackHand1			BackHand2			BackHand3	
		X0	Y0	Z0	X1	Y1	Z1	X2	Y2	Z2	X3	Y3	Z3	X4	Y4	Z4	X5	Y5	Z5	X6	Y6	Z6	X7	Y7	Z7	X8	Y8	Z8	X9	Y9	Z9	X10	Y10	Z10	X11	Y11	Z11	X12	Y12	Z12	X13	Y13	Z13	X14	Y14	Z14	X15	Y15	Z15	X16	Y16	Z16	X17	Y17	Z17	X18	Y18	Z18	
32	0.266667	-177.867	21.7312	66.4162	-148.861	11.66	53.1926	-125.888	11.0158	37.8614	-108.506	7.20616	20.5068	-174.156	64.9384	-3.16492	-164.649	67.4781	-35.9167	-148.082	50.9456	-57.913	-194.775	60.0283	-22.998	-176.855	61.4205	-53.7985	-152.499	36.6274	-66.9449	-208.648	46.6519	-27.6912	-193.666	46.9364	-56.2542	-172.204	27.8847	-69.5336	-224.125	20.5079	-26.3808	-206.733	26.5947	-45.044	-183.949	24.6961	-62.6903	-234.367	30.6666	19.8744	-244.913	18.5393	52.054	-214.482	38.3991	49.2229	
33	0.275	-175.683	21.0149	69.1904	-146.605	10.8735	53.041	-123.528	10.8301	34.4229	-108.469	5.10353	21.5028	-176.738	60.1563	-6.80376	-166.81	63.5687	-37.5783	-148.118	47.6477	-58.6234	-192.075	59.1169	-24.9888	-176.511	58.1514	-53.8933	-154.103	34.9515	-67.8472	-206.985	44.3062	-29.8297	-192.504	43.2585	-56.3669	-170.491	22.6114	-70.5162	-222.441	19.5577	-29.0778	-206.012	22.5342	-45.697	-187.695	22.3391	-64.5289	-231.104	29.8939	21.3696	-244.008	19.6839	48.5823	-213.822	39.6708	48.6876	
34	0.283333	-177.225	18.7943	67.9558	-146.52	7.30463	54.5601	-126.773	7.16113	37.1443	-108.571	3.23729	19.5521	-175.224	58.9263	-5.52798	-164.608	60.2741	-40.3801	-151.099	46.1628	-58.5099	-191.823	57.6385	-26.1708	-174.993	53.4302	-56.3225	-151.167	27.331	-68.2927	-209.909	40.5619	-30.0159	-188.709	41.4932	-57.7058	-169.412	19.0571	-70.8315	-224.143	14.3987	-24.2369	-205.748	20.394	-47.0958	-183.287	19.4753	-62.149	-230.869	27.2402	21.4516	-245.641	15.4364	51.63	-214.1	36.9391	47.7783	
35	0.291667	-176.042	16.1215	69.6172	-146.24	7.32206	51.1078	-127.967	5.6951	35.7599	-108.534	0.369047	19.3546	-174.488	58.9446	-6.84101	-161.497	61.2006	-39.6377	-149.397	44.9706	-58.0551	-194.616	53.4917	-28.9031	-173.522	51.3337	-55.9255	-150.612	26.7641	-68.4832	-209.748	37.8991	-31.2856	-188.726	37.8169	-59.6718	-169.729	18.5432	-69.5745	-221.474	15.6297	-28.5642	-204.47	18.1371	-48.0445	-185.979	15.3833	-62.8618	-232.622	25.6727	18.0798	-246.778	14.9533	48.8705	-213.118	33.2926	48.9351	
36	0.3	-175.665	16.2287	69.1095	-147.434	6.37733	50.8248	-127.569	4.52838	36.544	-102.877	-0.293671	23.1302	-177.047	54.3698	-9.73437	-168.092	57.404	-38.2246	-151.557	40.3719	-60.0426	-193.861	51.2992	-26.3911	-175.035	51.3192	-54.7356	-155.495	23.2638	-70.087	-209.888	35.0246	-29.8903	-191.819	36.3417	-57.2151	-166.627	14.1821	-70.6221	-218.88	13.6222	-27.5006	-203.708	16.1029	-45.6785	-182.947	12.4104	-64.5009	-234.506	20.5377	19.2728	-245.759	14.4353	47.8988	-213.151	32.3662	47.803	
37	0.308333	-176.474	16.6316	66.2498	-146.372	7.72216	50.6154	-126.955	4.83423	38.2565	-102.907	0.495517	25.5273	-176.031	55.1796	-13.6774	-165.251	56.4967	-41.4049	-146.916	40.8544	-60.2582	-195.241	48.1868	-26.593	-176.432	47.7059	-56.9985	-156.149	21.3776	-70.407	-210.735	33.5087	-31.5619	-187.746	34.6134	-59.9306	-169.186	10.6611	-74.0477	-223.624	10.3377	-25.2346	-207.367	13.6845	-47.4923	-184.353	14.954	-60.6015	-231.153	21.2491	22.7782	-248.405	12.0309	47.3309	-209.905	35.1852	47.8844	
38	0.316667	-178.766	16.6221	66.2477	-145.577	6.72751	55.4479	-123.67	6.49812	40.2633	-106.747	-0.0130541	26.4368	-175.54	53.7725	-8.66419	-162.167	57.7979	-39.8459	-148.56	38.9872	-61.3189	-191.168	50.3583	-24.8268	-175.264	47.0945	-57.3774	-153.082	19.0259	-71.7933	-206.746	34.8865	-31.4374	-189.603	33.6651	-59.8274	-170.034	13.1995	-72.5795	-219.651	10.5633	-26.6684	-207.62	12.5129	-48.196	-182.212	10.6915	-66.5543	-232.732	18.5276	20.0521	-243.728	13.777	49.052	-210.697	35.4503	49.0651	
39	0.325	-179.854	17.1835	65.7056	-150.916	6.75827	53.8806	-123.557	7.75874	38.1263	-101.8	3.09658	23.0674	-175.485	54.905	-14.0776	-166.131	57.3946	-38.967	-147.036	40.0514	-62.3511	-194.767	49.119	-30.7182	-175.371	45.7913	-59.4212	-156.658	22.483	-72.6178	-206.907	34.0798	-31.1019	-189.929	31.5059	-61.1632	-169.959	9.98893	-75.2059	-219.759	10.0478	-29.4733	-205.595	11.5487	-49.2585	-181.652	8.10889	-65.1735	-231.624	21.7053	20.5818	-245.891	11.5964	46.9713	-211.008	34.0352	50.1754	
40	0.333333	-175.117	19.0638	67.3023	-148.301	9.10768	52.7423	-123.981	9.69848	39.7031	-102.025	4.37622	26.6193	-178.01	54.2777	-15.0259	-165.612	55.8762	-41.1647	-151.606	39.7621	-62.9687	-195.352	47.7908	-30.2706	-177.921	46.4471	-58.8549	-151.893	24.1177	-71.8571	-210.053	31.3062	-33.516	-191.74	31.8194	-61.214	-167.653	10.9785	-73.7683	-220.721	8.67922	-25.6027	-208.255	9.76297	-49.1091	-183.406	11.0114	-64.005	-234.023	19.024	15.2267	-246.282	11.2024	47.4173	-214.773	33.7094	47.352	
41	0.341667	-177.314	21.4806	67.618	-151.917	8.59538	54.9121	-122.569	10.8376	39.5515	-104.658	6.10786	24.7948	-177.576	53.7704	-12.3248	-168.641	56.3691	-40.1479	-153.645	40.2937	-62.898	-196.566	47.1576	-32.1871	-177.84	46.1232	-60.1975	-155.696	20.7074	-74.8427	-211.953	29.3021	-34.0858	-190.961	31.3242	-60.3377	-167.968	13.1266	-72.7746	-222.656	5.6094	-29.7536	-206.687	8.59944	-49.6571	-183.086	7.73363	-67.9961	-233.356	18.0499	16.8123	-244.642	11.4282	47.4727	-214.436	33.7207	48.5285	
42	0.35	-178.885	19.9676	64.1624	-148.524	11.2229	57.1584	-126.418	10.3057	37.1942	-107.241	5.12487	26.9122	-177.245	53.9661	-11.5715	-166.447	53.7836	-43.4792	-148.612	39.0354	-65.6109	-195.801	45.2606	-33.4823	-178.975	42.4619	-61.7985	-150.195	20.3242	-74.1886	-211.271	26.3453	-34.0552	-193.099	25.6628	-64.2319	-168.816	11.218	-74.4147	-221.879	2.61574	-29.2916	-205.993	7.19415	-49.1076	-183.91	8.87766	-65.1037	-234.136	15.2601	18.8849	-246.637	7.53836	47.2943	-216.214	31.243	47.1439	
43	0.358333	-179.54	19.8431	66.4482	-151.404	10.465	54.4375	-128.073	10.0233	43.1126	-103.713	5.4457	27.7984	-180.928	48.9558	-15.9821	-168.515	53.8188	-41.3862	-152.924	38.8856	-63.8294	-198.392	40.3481	-31.0573	-176.418	42.1345	-62.0681	-154.302	19.2354	-74.6228	-209.402	25.8428	-36.3108	-194.438	25.9206	-62.0485	-171.064	7.47725	-76.8739	-218.738	2.67691	-28.8005	-206.932	4.50305	-48.719	-187.04	7.30006	-64.1947	-232.547	14.8622	16.2238	-249.759	4.4206	45.2728	-215.881	30.2956	47.6836	
44	0.366667	-184.349	17.3519	65.9891	-149.669	10.5666	57.729	-123.413	12.8347	42.6929	-106.752	6.33653	28.906	-179.603	47.4201	-13.8266	-170.912	49.5727	-42.496	-152.085	33.3746	-65.78	-197.288	39.3547	-28.9605	-182.14	38.8886	-60.2611	-154.089	18.0261	-75.5145	-210.997	22.3249	-37.5735	-195.819	22.9475	-62.2542	-171.798	4.40277	-76.7763	-221.32	-2.80228	-25.3481	-205.977	0.126179	-50.4933	-182.477	3.72297	-64.9497	-233.804	10.5196	17.5533	-246.062	5.53263	46.6563	-215.544	31.4698	44.4205	
45	0.375	-182.486	16.686	65.6467	-149.822	9.48294	55.9687	-128.963	8.30752	44.4473	-107.643	4.91841	35.4779	-180.372	44.539	-14.9359	-168.852	45.4184	-44.2702	-152.02	30.5714	-65.0052	-197.536	36.1566	-32.4501	-181.007	31.4604	-63.7538	-156.422	13.7667	-76.3303	-210.414	19.7102	-33.0104	-196.011	18.5436	-60.7982	-170.302	-0.862502	-76.0947	-220.538	-6.07488	-28.8067	-208.764	-5.39411	-48.8682	-187.935	-1.03291	-63.6828	-237.333	4.85087	16.9066	-248.857	3.0283	48.9181	-217.801	26.3586	45.7064	
